<svg fill="none" height="21" viewBox="0 0 26 21" width="26" xmlns="http://www.w3.org/2000/svg" xmlns:xlink="http://www.w3.org/1999/xlink"><filter id="a" color-interpolation-filters="sRGB" filterUnits="userSpaceOnUse" height="21" width="26" x="0" y="0"><feFlood flood-opacity="0" result="BackgroundImageFix"/><feColorMatrix in="SourceAlpha" result="hardAlpha" type="matrix" values="0 0 0 0 0 0 0 0 0 0 0 0 0 0 0 0 0 0 127 0"/><feOffset dy="2"/><feGaussianBlur stdDeviation="1.5"/><feColorMatrix type="matrix" values="0 0 0 0 0 0 0 0 0 0 0 0 0 0 0 0 0 0 0.1 0"/><feBlend in2="BackgroundImageFix" mode="normal" result="effect1_dropShadow_8_36"/><feBlend in="SourceGraphic" in2="effect1_dropShadow_8_36" mode="normal" result="shape"/></filter><linearGradient id="b" gradientUnits="userSpaceOnUse" x1="13" x2="13" y1="1" y2="16"><stop offset="0" stop-color="#fff" stop-opacity=".7"/><stop offset="1" stop-opacity=".3"/></linearGradient><mask id="c" height="15" maskUnits="userSpaceOnUse" width="20" x="3" y="1"><path d="m3 1h20v15h-20z" fill="#fff"/></mask><mask id="d" height="15" maskUnits="userSpaceOnUse" width="20" x="3" y="1"><path clip-rule="evenodd" d="m3 1v15h20v-15z" fill="#fff" fill-rule="evenodd"/></mask><mask id="e" height="15" maskUnits="userSpaceOnUse" width="20" x="3" y="1"><path d="m3 1h20v15h-20z" fill="#fff"/></mask><mask id="f" fill="#fff"><path clip-rule="evenodd" d="m15.3611-.25h-4.7222v6.25h-8.87169v5h8.87169v6.25h4.7222v-6.25h8.9061v-5h-8.9061z" fill="#fff" fill-rule="evenodd"/></mask><g filter="url(#a)"><g mask="url(#c)"><path clip-rule="evenodd" d="m3 1v15h20v-15z" fill="#2e42a5" fill-rule="evenodd"/><g mask="url(#d)"><g mask="url(#e)"><path d="m.773041 14.9284 4.401059 1.8613 17.9258-13.76604 2.3214-2.765926-4.7063-.622097-7.3115 5.932173-5.88497 3.99689z" fill="#fff"/><path d="m1.37555 16.2324 2.24213 1.0802 20.97002-17.31186186h-3.1482z" fill="#f50100"/><path d="m25.227 14.9284-4.4011 1.8613-17.92577-13.76604-2.321458-2.765926 4.706298-.622097 7.31153 5.932173 5.885 3.99689z" fill="#fff"/><path d="m25.0768 15.8643-2.2421 1.0801-8.9293-7.41207-2.6473-.82814-10.902795-8.436993h3.148215l10.89668 8.236743 2.8944.99302z" fill="#f50100"/><path clip-rule="evenodd" d="m15.3611-.25h-4.7222v6.25h-8.87169v5h8.87169v6.25h4.7222v-6.25h8.9061v-5h-8.9061z" fill="#f50100" fill-rule="evenodd"/><path d="m10.6389-.25v-1.25h-1.25001v1.25zm4.7222 0h1.25v-1.25h-1.25zm-4.7222 6.25v1.25h1.25v-1.25zm-8.87169 0v-1.25h-1.249998v1.25zm0 5h-1.249998v1.25h1.249998zm8.87169 0h1.25v-1.25h-1.25zm0 6.25h-1.25001v1.25h1.25001zm4.7222 0v1.25h1.25v-1.25zm0-6.25v-1.25h-1.25v1.25zm8.9061 0v1.25h1.25v-1.25zm0-5h1.25v-1.25h-1.25zm-8.9061 0h-1.25v1.25h1.25zm-4.7222-5h4.7222v-2.5h-4.7222zm1.25 5v-6.25h-2.50001v6.25zm-10.12169 1.25h8.87169v-2.5h-8.87169zm1.25 3.75v-5h-2.499998v5zm7.62169-1.25h-8.87169v2.5h8.87169zm1.25 7.5v-6.25h-2.50001v6.25zm3.4722-1.25h-4.7222v2.5h4.7222zm-1.25-5v6.25h2.5v-6.25zm10.1561-1.25h-8.9061v2.5h8.9061zm-1.25-3.75v5h2.5v-5zm-7.6561 1.25h8.9061v-2.5h-8.9061zm-1.25-7.5v6.25h2.5v-6.25z" fill="#fff" mask="url(#f)"/></g></g></g><path d="m3 1h20v15h-20z" fill="url(#b)"/><path d="m4.5 2h17v-2h-17zm17.5.5v12h2v-12zm-.5 12.5h-17v2h17zm-17.5-.5v-12h-2v12zm.5.5c-.27614 0-.5-.2239-.5-.5h-2c0 1.3807 1.11929 2.5 2.5 2.5zm17.5-.5c0 .2761-.2239.5-.5.5v2c1.3807 0 2.5-1.1193 2.5-2.5zm-.5-12.5c.2761 0 .5.22386.5.5h2c0-1.38071-1.1193-2.5-2.5-2.5zm-17-2c-1.38071 0-2.5 1.11929-2.5 2.5h2c0-.27614.22386-.5.5-.5z" fill="#000" fill-opacity=".1"/></g></svg>