<svg fill="none" height="105" viewBox="0 0 89 105" width="89" xmlns="http://www.w3.org/2000/svg"><path d="m74.1198 100.772c-5.724 5.527-12.0394 4.665-18.0591 2.059-6.3998-2.658-12.2505-2.826-19.0095 0-8.417 3.615-12.8842 2.564-17.9534-2.059-28.61988-29.3176-24.39554-73.9766 8.1318-75.6579 7.889.4203 13.4123 4.3398 18.0591 4.6656 6.9068-1.3976 13.5179-5.4012 20.9104-4.8758 8.8817.7146 15.5245 4.2032 19.96 10.4765-18.2702 10.9283-13.9403 34.8866 2.8409 41.6117-3.3583 8.7742-7.6672 17.4433-14.8908 23.8529zm-29.4648-75.9731c-.8554-13.0299 9.7582-23.7481 21.9666-24.7989 1.6792 15.0264-13.7291 26.27-21.9666 24.7989z" fill="#fff"/></svg>