<svg width="118" height="118" viewBox="0 0 118 118" fill="none" xmlns="http://www.w3.org/2000/svg">
<path d="M23.8549 11.3473C32.5821 4.88057 42.8968 0.971368 53.6472 0V17.7892C46.6979 18.6901 40.0613 21.3506 34.3843 25.5572C27.2759 30.8245 22.0485 38.2368 19.473 46.7008C16.8976 55.1649 17.1105 64.2326 20.0804 72.5662C23.0503 80.9002 28.6199 88.0594 35.9677 92.987C43.3155 97.9146 52.0524 100.35 60.8899 99.9356C69.7273 99.52 78.1972 96.2754 85.0508 90.6806C91.9038 85.0851 96.7775 77.4356 98.953 68.8602C100.471 62.8785 100.619 56.6672 99.4304 50.679L114.368 38.6697L114.358 38.5729C118.391 49.6652 119.007 61.7329 116.096 73.209C112.988 85.4597 106.026 96.3876 96.2354 104.381C86.4448 112.373 74.3451 117.008 61.7201 117.601C49.0951 118.195 36.6137 114.715 26.1168 107.675C15.62 100.636 7.66343 90.4089 3.42079 78.5032C-0.821893 66.5978 -1.12607 53.644 2.5531 41.5525C6.23229 29.4609 13.7 18.872 23.8549 11.3473Z" fill="#737373"/>
<path d="M103.105 19.6473L103.167 19.8041L93.1849 35.659C89.5543 30.2794 84.6899 25.8016 78.9966 22.6322V58.713C78.9966 69.783 70.0228 78.757 58.9528 78.757C47.8828 78.757 38.9088 69.783 38.9088 58.713C38.9088 47.643 47.8828 38.669 58.9528 38.669C63.1015 38.669 66.9559 39.9295 70.1538 42.0883V0.822853C83.1672 3.32587 94.658 10.1079 103.105 19.6473Z" fill="white"/>
</svg>
