<svg fill="none" height="89" viewBox="0 0 89 89" width="89" xmlns="http://www.w3.org/2000/svg"><path d="m44.4997 0c-24.576 0-44.4997 19.9237-44.4997 44.5003 0 24.5776 19.9237 44.4997 44.4997 44.4997 24.5787 0 44.5003-19.9221 44.5003-44.4997 0-24.575-19.9216-44.49817442-44.5008-44.49817442zm20.4073 64.1822c-.7971 1.3072-2.5081 1.7217-3.8153.9193-10.4481-6.3821-23.6009-7.8275-39.0908-4.2884-1.4926.3401-2.9805-.5952-3.3206-2.0884-.3417-1.4932.5898-2.9811 2.0862-3.3212 16.9512-3.8744 31.4914-2.2053 43.2212 4.9632 1.3072.8024 1.7217 2.5082.9193 3.8155zm5.4467-12.1186c-1.0043 1.6341-3.1405 2.1495-4.7718 1.1452-11.9615-7.354-30.1949-9.4833-44.343-5.1886-1.8349.5543-3.7728-.4798-4.3297-2.3115-.5527-1.835.482-3.7692 2.3136-4.3272 16.161-4.9037 36.2521-2.5284 49.9884 5.9129 1.6314 1.0043 2.1468 3.1405 1.1425 4.7698zm.4676-12.6175c-14.342-8.5188-38.0046-9.3021-51.6978-5.146-2.1989.6669-4.5242-.5744-5.1906-2.7734-.6664-2.2.5739-4.5238 2.7744-5.1922 15.7188-4.772 41.8497-3.85 58.3619 5.9527 1.9821 1.1738 2.6304 3.7282 1.456 5.7035-1.169 1.9778-3.7303 2.6298-5.7017 1.4554z" fill="#fff"/></svg>