<svg fill="none" height="118" viewBox="0 0 118 118" width="118" xmlns="http://www.w3.org/2000/svg"><path d="m23.8549 11.3473c8.7272-6.46673 19.0419-10.375932 29.7923-11.3473v17.7892c-6.9493.9009-13.5859 3.5614-19.2629 7.768-7.1084 5.2673-12.3358 12.6796-14.9113 21.1436-2.5754 8.4641-2.3625 17.5318.6074 25.8654 2.9699 8.334 8.5395 15.4932 15.8873 20.4208s16.0847 7.363 24.9222 6.9486c8.8374-.4156 17.3073-3.6602 24.1609-9.255 6.853-5.5955 11.7267-13.245 13.9022-21.8204 1.518-5.9817 1.666-12.193.4774-18.1812l14.9376-12.0093-.01-.0968c4.033 11.0923 4.649 23.16 1.738 34.6361-3.108 12.2507-10.07 23.1786-19.8606 31.172-9.7906 7.992-21.8903 12.627-34.5153 13.22-12.625.594-25.1064-2.886-35.6033-9.926-10.4968-7.039-18.45337-17.2661-22.69601-29.1718-4.242683-11.9054-4.54686-24.8592-.86769-36.9507 3.67919-12.0916 11.1469-22.6805 21.3018-30.2052z" fill="#737373"/><path d="m103.105 19.6473.062.1568-9.9821 15.8549c-3.6306-5.3796-8.495-9.8574-14.1883-13.0268v36.0808c0 11.07-8.9738 20.044-20.0438 20.044s-20.044-8.974-20.044-20.044 8.974-20.044 20.044-20.044c4.1487 0 8.0031 1.2605 11.201 3.4193v-41.265447c13.0134 2.503017 24.5042 9.285047 32.9512 18.824447z" fill="#fff"/></svg>