<svg fill="none" height="21" viewBox="0 0 26 21" width="26" xmlns="http://www.w3.org/2000/svg" xmlns:xlink="http://www.w3.org/1999/xlink"><filter id="a" color-interpolation-filters="sRGB" filterUnits="userSpaceOnUse" height="21" width="26" x="0" y="0"><feFlood flood-opacity="0" result="BackgroundImageFix"/><feColorMatrix in="SourceAlpha" result="hardAlpha" type="matrix" values="0 0 0 0 0 0 0 0 0 0 0 0 0 0 0 0 0 0 127 0"/><feOffset dy="2"/><feGaussianBlur stdDeviation="1.5"/><feColorMatrix type="matrix" values="0 0 0 0 0 0 0 0 0 0 0 0 0 0 0 0 0 0 0.1 0"/><feBlend in2="BackgroundImageFix" mode="normal" result="effect1_dropShadow_8_40"/><feBlend in="SourceGraphic" in2="effect1_dropShadow_8_40" mode="normal" result="shape"/></filter><linearGradient id="b" gradientUnits="userSpaceOnUse" x1="13" x2="13" y1="1" y2="16"><stop offset="0" stop-color="#fff" stop-opacity=".7"/><stop offset="1" stop-opacity=".3"/></linearGradient><mask id="c" height="15" maskUnits="userSpaceOnUse" width="20" x="3" y="1"><path d="m3 1h20v15h-20z" fill="#fff"/></mask><mask id="d" height="15" maskUnits="userSpaceOnUse" width="20" x="3" y="1"><path clip-rule="evenodd" d="m3 1v15h20v-15z" fill="#fff" fill-rule="evenodd"/></mask><g filter="url(#a)"><g mask="url(#c)"><g mask="url(#d)"><path d="m3 6h20v5h-20z" fill="#3d58db"/><g clip-rule="evenodd" fill-rule="evenodd"><path d="m3 1v5h20v-5z" fill="#f7fcff"/><path d="m3 11v5h20v-5z" fill="#c51918"/></g></g></g><path d="m3 1h20v15h-20z" fill="url(#b)"/><path d="m4.5 2h17v-2h-17zm17.5.5v12h2v-12zm-.5 12.5h-17v2h17zm-17.5-.5v-12h-2v12zm.5.5c-.27614 0-.5-.2239-.5-.5h-2c0 1.3807 1.11929 2.5 2.5 2.5zm17.5-.5c0 .2761-.2239.5-.5.5v2c1.3807 0 2.5-1.1193 2.5-2.5zm-.5-12.5c.2761 0 .5.22386.5.5h2c0-1.38071-1.1193-2.5-2.5-2.5zm-17-2c-1.38071 0-2.5 1.11929-2.5 2.5h2c0-.27614.22386-.5.5-.5z" fill="#000" fill-opacity=".1"/></g></svg>